# xmcd
#
# Track frame offsets: 
#        150
#        10561
#        23424
#        38558
#        47816
#        60739
#        74381
#        89725
#        105115
#        115748
#        126471
#        137156
#        150787
#        166263
#        179818
#        191613
#        203710
#        214322
#        224508
#        234821
#
# Disc length: 3312 seconds
#
# Revision: 0
# Processed by: cddbd v1.5.2PL0 Copyright (c) Steve Scherf et al.
# Submitted via: ExactAudioCopyFreeDBPlugin 1.0
#
DISCID=0f0cee14
DTITLE=Various Artist - Solid Soul 9 - Tears On My Pillow
DYEAR=2001
DGENRE=Soul
TTITLE0=Little Anthony and The Imperials - Tears On My Pillow
TTITLE1=The Jive Five - United
TTITLE2=The Flamingos - I Only Have Eyes For You
TTITLE3=Jimmy Pemberton - Rags To Riches
TTITLE4=Ann Cole - Have Fun
TTITLE5=Johnny Eager - I Understand
TTITLE6=Savannah Smith - Anytime, Anyplace, Anywhere
TTITLE7=Garnet Mimms and The Enchanters - Cry Baby
TTITLE8=Irma Thomas - Wish Someone Would Care
TTITLE9=Benny Spellman - Lipstick Traces (On A Sigarette)
TTITLE10=Garnet Mimms - A Quiet Place
TTITLE11=Freddie Scott - Hey Girl
TTITLE12=King Curtis - Soul Serenade
TTITLE13=The Heartbeats - Everybody's Somebody's Fool
TTITLE14=The Flamingos - I Know Better
TTITLE15=Cathy and The Calendars - Please Don't Go
TTITLE16=George "Harmonica" Smith - Pretty Little Girl
TTITLE17=Buddy Johnson - A Woman, A Lover, A Friend
TTITLE18=The Five keys - Out Of Side, Out Of Mind
TTITLE19=Shep and The Limelites - Daddy's Home
EXTD=
EXTT0=
EXTT1=
EXTT2=
EXTT3=
EXTT4=
EXTT5=
EXTT6=
EXTT7=
EXTT8=
EXTT9=
EXTT10=
EXTT11=
EXTT12=
EXTT13=
EXTT14=
EXTT15=
EXTT16=
EXTT17=
EXTT18=
EXTT19=
PLAYORDER=
